<svg xmlns="http://www.w3.org/2000/svg" width="71" height="12" fill="none" viewBox="0 0 71 12">
  <path fill="#3F3F3F" fill-rule="evenodd" d="m60.617.472.542.018c.37 0 .642.014.794.036.156.022.27.067.346.125.1.066.167.183.19.338.02.16.034.473.034.94v6.876L55.248.174h-3.872v.299h1.478l.336.209v9.79a.409.409 0 0 1-.008.071c-.005.022-.01.04-.01.053-.038.384-.12.646-.238.79-.118.137-.432.204-.94.191h-1.516L45.778 0h-.261l-.598 1.564-3.331 8.698c-.057.16-.12.308-.167.428a2.87 2.87 0 0 1-.147.326c-.152.28-.333.45-.547.503-.166.04-.432.063-.802.063v-.005H38.11V.472h1.815V.174h-3.63l-3.816 8.792L28.401.174h-3.483v.298h1.573l.166.317v9.718c0 .433-.08.727-.242.87-.162.146-.475.213-.936.2h-.632v.298h4.096v-.298l-.542.017c-.689 0-1.098-.107-1.23-.325-.129-.214-.196-.539-.196-.972v-.28a.543.543 0 0 1-.019-.151V1.439l4.7 10.209 4.637-10.579v10.508h-1.796v.298h9.038v-.298l-.58.018c-.45 0-.77-.04-.964-.111-.19-.076-.29-.215-.29-.397 0-.058.019-.152.056-.28.04-.13.096-.308.167-.527l.86-2.228h4.267l1.44 3.525h-1.868v.298h8.81v-.28c-.946 0-1.511-.076-1.688-.237-.17-.156-.26-.703-.26-1.64V.999l9.208 10.966h.11V1.947c0-.445.009-.735.019-.878a.62.62 0 0 1 .114-.334c.01 0 .023-.009.028-.018a.192.192 0 0 1 .029-.035c.061-.08.166-.134.318-.156.148-.022.409-.045.784-.054h.523V.174h-4.002v.298Zm-15.7 7.281h-2.019l1.963-5.19.057.138 2.019 5.053h-2.02ZM71 .473v-.3h-5.498v.3h1.81v11.104h-1.81v.298H71v-.298h-1.815V.472H71Zm-47.327 11.14a.835.835 0 0 1-.214.035c-.038.009-.076.018-.114.018h-.128c-.409 0-.68-.232-.799-.686-.118-.455-.2-.98-.252-1.578-.01-.058-.023-.116-.028-.174a2.164 2.164 0 0 1-.01-.178 9.49 9.49 0 0 0-.175-1.208c-.081-.387-.223-.704-.423-.949a2.33 2.33 0 0 0-.988-.721c-.409-.166-1.003-.299-1.777-.402.038 0 .07-.004.104-.008a.654.654 0 0 1 .1-.01A7.245 7.245 0 0 0 21.402 5c.736-.388 1.102-1.075 1.102-2.055 0-.993-.366-1.689-1.093-2.076a5.611 5.611 0 0 0-2.404-.66 1.402 1.402 0 0 0-.238-.018 1.88 1.88 0 0 1-.228-.017h-6.453v.298h1.815v11.105h-3.036L6.172 0h-.26l-.6 1.564-3.33 8.698-.167.428a2.18 2.18 0 0 1-.152.326c-.147.28-.328.45-.541.503-.21.05-.585.071-1.122.058v.298h3.925v-.298l-.58.018c-.447 0-.765-.04-.96-.111-.195-.076-.29-.215-.29-.397 0-.058.02-.152.058-.28.033-.13.09-.308.166-.527l.86-2.228h4.267l1.44 3.525H7.014v.298h10.648v-.298h-1.929V5.91l.732.018c.675 0 1.24.04 1.692.124.58.103.979.277 1.188.517.37.428.627 1.185.765 2.273.024.138.047.28.057.423.014.138.033.286.057.437.1.851.328 1.453.684 1.791.351.334.926.508 1.71.508.2 0 .385-.008.551-.026.167-.018.333-.054.494-.098a.716.716 0 0 0 .22-.036 1.97 1.97 0 0 0 .213-.085l-.114-.232-.309.09Zm-18.36-3.86h-2.02l1.962-5.19.057.138 2.02 5.053h-2.02Zm11.955-2.156a11.945 11.945 0 0 1-1.535.031V.472l.656.018c.718 0 1.306.022 1.768.071.275.032.503.067.684.112a2.18 2.18 0 0 1 1.193.766c.114.138.213.308.294.508.08.197.148.397.195.598.01.089.024.186.038.28.01.09.019.178.019.263 0 .931-.347 1.573-1.04 1.912a5.982 5.982 0 0 1-1.383.473c-.29.061-.585.101-.89.124Z" clip-rule="evenodd"/>
</svg>
