<svg xmlns="http://www.w3.org/2000/svg" width="92" height="13" fill="none" viewBox="0 0 92 13">
  <path fill="#3F3F3F" d="m68.54 12.61-2.854-5.006a3.643 3.643 0 0 0 2.07-3.282A3.657 3.657 0 0 0 64.103.669h-6.102v11.94h2.714V7.975h2.16l2.64 4.634h3.025Zm-7.87-6.94V2.98h2.925l-.012.005c.89.047 1.458.563 1.458 1.343 0 .77-.608 1.31-1.514 1.343L60.67 5.67Zm-13.75 6.94V.67h8.92v2.278h-6.134v2.388h5.379v2.33h-5.379v2.546h6.438v2.397H46.92Zm-12.724 0-2.853-5.006a3.643 3.643 0 0 0 2.07-3.282A3.657 3.657 0 0 0 29.76.669h-6.102v11.94h2.713V7.975h2.16l2.642 4.634h3.023Zm-7.87-6.94V2.98h2.925l-.012.005c.89.047 1.458.563 1.458 1.343 0 .77-.607 1.31-1.514 1.343l-2.857-.001Zm-9.9 7.234c3.265 0 5.215-1.877 5.215-5.021V.678h-2.787v7.019c0 1.7-.885 2.674-2.427 2.674h-.002c-1.543 0-2.427-.974-2.427-2.674V.678H11.21v7.205c0 3.144 1.95 5.02 5.215 5.02h.001Zm-8.86-6.907c1.608.548 2.391 1.916 2.391 3.235a3.381 3.381 0 0 1-3.365 3.377H0V.67h6.071a2.883 2.883 0 0 1 2.856 2.88 2.872 2.872 0 0 1-1.361 2.448Zm-4.83 4.385h3.046c.958 0 1.459-.715 1.459-1.42 0-.57-.452-1.37-1.459-1.37H2.736v2.79Zm2.23-5.018A1.23 1.23 0 0 0 6.218 4.13c0-.669-.574-1.233-1.252-1.233h-2.23v2.467h2.23Zm38.064.629c1.608.548 2.392 1.917 2.392 3.236a3.381 3.381 0 0 1-3.366 3.377h-6.591V.666l6.07-.001a2.884 2.884 0 0 1 2.857 2.88 2.87 2.87 0 0 1-1.362 2.448Zm-4.83 4.385h3.047c.957 0 1.458-.714 1.458-1.42 0-.569-.452-1.37-1.458-1.37H38.2v2.79Zm2.23-5.017a1.23 1.23 0 0 0 1.253-1.234c0-.669-.574-1.234-1.253-1.234H38.2v2.468h2.23Zm39.917 7.247-2.853-5.005a3.643 3.643 0 0 0 2.069-3.282A3.657 3.657 0 0 0 75.911.668h-6.102v11.94h2.713V7.974h2.16l2.641 4.634h3.024Zm-7.87-6.94V2.98h2.925l-.012.005c.89.047 1.458.563 1.458 1.343 0 .77-.608 1.31-1.514 1.343h-2.857V5.67Zm11.835 6.94V7.743L79.575.668h3.48l2.726 4.105L88.52.668H92l-4.75 7.075v4.865h-2.94Z"/>
</svg>
