<svg xmlns="http://www.w3.org/2000/svg" width="77" height="13" fill="none" viewBox="0 0 77 13">
  <path fill="#3F3F3F" fill-rule="evenodd" d="M11.657 8.832a.635.635 0 0 0-.037.083c-.986 1.863-2.923 3.132-5.133 3.132-3.206 0-5.837-2.685-5.837-6C.65 2.748 3.28.044 6.487.044c2.22 0 4.165 1.297 5.142 3.188a.542.542 0 0 1 .064.11c.01.009-1.863 1.36-1.881 1.333-.01-.036-.019-.064-.037-.082-.54-1.343-1.817-2.238-3.288-2.21-1.964.018-3.58 1.644-3.58 3.662 0 2.037 1.616 3.682 3.58 3.682 1.425 0 2.667-.877 3.233-2.12.027-.045.037-.082.055-.118l1.882 1.342ZM14.076.155h2.247v4.193h5.9V.155h2.266V11.82h-2.265V6.695h-5.901v5.124h-2.247V.155Zm42.127 11.664V.155h8.156v2.357h-5.882V4.84h5.435v2.33h-5.435v2.329h6.714v2.32h-8.988Zm12.174 0V.155h2.283V9.5H77v2.32h-8.623Zm-24.431 0h-2.283V.155h3.167l4.997 7.015V.155h2.265V11.82h-1.809l-6.338-8.796v8.796Zm-10.88-9.307L31.075 7.17h4.073l-2.082-4.658ZM30.05 9.499l-1.04 2.32h-2.704L31.477.155h3.16l5.206 11.664h-2.704l-1.05-2.32h-6.038Z" clip-rule="evenodd"/>
</svg>
