<svg xmlns="http://www.w3.org/2000/svg" width="43" height="18" fill="none" viewBox="0 0 43 18">
  <path fill="#3F3F3F" d="M36.19 11.01c-.014-.081-.014-.151.389-.277.4-.125 1.377-.455 1.97-.783.593-.331.692-.378.831-.285.14.092.1.316.1.475v1.608c.216-.356.929-1.542 1.495-1.891.445-.276.602-.298.877-.304.331-.006 1.113.198 1.147 1.023.027.645-.449.904-.751.864-.243-.035-.416-.258-.56-.483-.146-.227-.376-.362-.607-.284-.23.08-1.523.918-1.596 2.11-.052.877 0 3.613 0 3.613 0 .415.159.575.345.686.184.112.862.118 1.052.145.193.027.186.072.186.132 0 .058 0 .087-.17.087h-4.544c-.145 0-.204-.029-.204-.114 0-.119.19-.098.336-.119.145-.019.913.044 1.133-.342.162-.253.143-.66.143-.66l-.023-4.806c0-.388-.115-.445-.221-.506-.108-.061-.287-.094-.662.033-.355.117-.6.226-.667.078Zm-15.889.001c-.061-.118.053-.194.39-.283.375-.1 1.199-.35 1.852-.72.652-.368.765-.407.902-.362.14.046.126.29.126.488v6.217c0 .349.047.494.204.64.159.145.554.23 1.068.23.232 0 .304.027.304.126s-.072.099-.165.099h-4.509c-.139 0-.172-.06-.172-.119 0-.073.061-.12.271-.12.177 0 .993.062 1.178-.362.072-.162.107-.388.107-.599v-4.932c0-.374-.29-.54-.626-.46-.392.09-.85.312-.93.157Zm2.299-4.3a1.109 1.109 0 1 0 .002-2.215 1.109 1.109 0 0 0-.001 2.215Zm5.417 7.051c.224 2.017 1.425 3.586 2.913 3.323 1.491-.264 2.239-1.688 2.059-3.968-.184-2.32-1.331-3.477-2.875-3.338-1.596.145-2.321 1.964-2.097 3.983Zm1.477-4.338c1.921-.36 4.654.064 5.275 3.071.62 3.007-1.45 4.608-3.245 4.999-1.755.38-4.734.109-5.273-3.126-.486-2.903 1.621-4.641 3.243-4.944ZM6.749 16.96h1.114c4.144 0 5.257-.386 6.716-2.323 1.458-1.938 1.632-4.72 1.632-5.66 0-.94-.25-3.3-1.709-5.297-1.46-1.996-3.896-2.514-6.027-2.514H6.74c-.412 0-.433.183-.433.47v14.958c0 .326.115.365.442.365ZM0 17.31c0-.152.196-.177.379-.183 2.11-.06 2.503-.133 2.745-.383.131-.138.324-.25.324-1.228V2.063C3.448.855 1.981 1.046.945.94.58.904.55.855.55.748.55.644.619.593.81.585h8.5c9.346 0 9.824 6.833 9.824 8.655 0 3.916-2.589 8.222-8 8.222H.273c-.134 0-.273-.018-.273-.152Z"/>
</svg>
