<svg xmlns="http://www.w3.org/2000/svg" width="48" height="15" fill="none" viewBox="0 0 48 15">
  <path fill="#3F3F3F" d="M0 .83c2.865 0 5.726.003 8.589 0 .003.782.006 1.565-.001 2.348-2.022-.001-4.044-.002-6.066 0 .001.982-.001 1.965.001 2.947 1.77-.004 3.54 0 5.31-.001.01.78-.001 1.56.007 2.34-1.772-.002-3.544.001-5.315-.002-.005 1.85-.003 3.7-.002 5.55-.839-.01-1.678-.01-2.517 0C-.005 9.616.003 5.222 0 .83Zm10.258 13.18c-.003-4.395-.003-8.79 0-13.185 2.959.01 5.918.005 8.876.003 0 .783-.003 1.566.002 2.348-2.136 0-4.272-.004-6.409.003.007.918.001 1.838.003 2.757 1.962-.005 3.924-.002 5.885-.002-.007.78.002 1.56-.005 2.339-1.96.002-3.92.003-5.879-.001-.005 1.127.005 2.255-.005 3.383 2.233.007 4.466 0 6.699.003.005.782.005 1.565 0 2.348-3.055.002-6.111-.009-9.167.005ZM21.32.825c.889.007 1.778.009 2.667 0 1.604 3.063 3.207 6.125 4.815 9.186.005-3.06.005-6.12 0-9.18.783-.004 1.567.002 2.351-.003.004 4.394.003 8.787 0 13.18-.838-.006-1.677-.002-2.515-.002a3656.188 3656.188 0 0 0-4.948-9.403v9.406c-.79-.007-1.581-.01-2.372.002.006-4.395.003-8.79.002-13.186Zm12.241.002c1.831.006 3.662 0 5.494.004 1.004.016 2.032.304 2.806.978.811.646 1.285 1.62 1.58 2.602.25.894.342 1.827.357 2.754-.036 1.433-.235 2.9-.886 4.19-.407.893-1.087 1.663-1.938 2.138-.623.345-1.336.49-2.04.51-1.79.008-3.58-.008-5.369.007-.012-4.394-.003-8.789-.004-13.183Zm2.496 2.297c-.007 2.861-.004 5.723-.002 8.584.796-.004 1.591 0 2.388-.002.325-.01.658-.05.958-.184.582-.245.995-.773 1.27-1.332.462-1.02.563-2.167.533-3.276-.028-1.062-.187-2.2-.876-3.043-.414-.522-1.1-.695-1.73-.737-.847-.016-1.694.003-2.541-.01Zm9.424 10.89c-.01-4.397-.008-8.793 0-13.19.838.013 1.676.004 2.514.004.004 4.392.006 8.785 0 13.177-.838.004-1.676-.012-2.514.009Z"/>
</svg>
