<svg xmlns="http://www.w3.org/2000/svg" width="63" height="14" fill="none" viewBox="0 0 63 14">
  <path fill="#3F3F3F" d="m56.426 4.12-.11.04c-.432-1.013-1.048-1.82-1.85-2.42-.788-.6-1.78-.9-2.976-.9-.666 0-1.3.154-1.905.46a4.768 4.768 0 0 0-1.59 1.26c-.444.534-.801 1.18-1.072 1.94-.272.76-.407 1.6-.407 2.52 0 .92.136 1.76.407 2.52.271.76.628 1.413 1.072 1.96a4.89 4.89 0 0 0 1.59 1.24c.604.293 1.24.44 1.905.44 1.183 0 2.145-.2 2.884-.6.752-.413 1.387-1.04 1.905-1.88l.11.04-.036 1.28c-.284.32-.61.607-.98.86-.37.24-.77.447-1.202.62-.42.16-.857.28-1.313.36a6.83 6.83 0 0 1-1.368.14c-.95 0-1.855-.167-2.718-.5a7.129 7.129 0 0 1-2.275-1.4 6.782 6.782 0 0 1-1.553-2.2c-.382-.866-.573-1.826-.573-2.88 0-1.053.191-2.006.574-2.86a6.74 6.74 0 0 1 1.552-2.22 6.677 6.677 0 0 1 2.275-1.4 7.48 7.48 0 0 1 2.717-.499c.457 0 .913.04 1.37.12.455.08.893.206 1.312.38.431.16.832.367 1.202.62.37.24.696.52.98.84l.073 2.12ZM13.914 7.94c-.138.067-.27.154-.396.26a.546.546 0 0 0-.19.44v2.46a6.334 6.334 0 0 1-2.325 2.14c-.944.507-1.99.76-3.137.76a7.8 7.8 0 0 1-2.778-.5 7.306 7.306 0 0 1-2.325-1.4 6.79 6.79 0 0 1-1.587-2.2C.786 9.034.59 8.074.59 7.02c0-1.053.195-2.006.586-2.86.39-.866.92-1.606 1.587-2.22A6.846 6.846 0 0 1 5.088.542a7.795 7.795 0 0 1 2.778-.5c.467 0 .933.04 1.399.12.466.08.913.207 1.341.38.442.16.851.367 1.23.62.377.24.711.52 1.001.84l.076 2.12-.114.04c-.44-1.014-1.07-1.82-1.89-2.42-.806-.6-1.82-.9-3.043-.9-.68 0-1.329.153-1.946.46a4.87 4.87 0 0 0-1.625 1.26c-.454.533-.82 1.18-1.097 1.94s-.416 1.6-.416 2.52c0 .906.133 1.739.398 2.499.277.76.642 1.413 1.095 1.96a5.247 5.247 0 0 0 1.626 1.26c.617.293 1.272.44 1.965.44 1.311 0 2.432-.267 3.364-.8V8.64a.525.525 0 0 0-.207-.44 2.153 2.153 0 0 0-.378-.26l.017-.1c.063.012.176.025.34.04.164.012.334.025.51.04h1.626c.152-.012.296-.026.435-.04.138-.012.245-.026.32-.04l.021.1ZM27.874.773c-.123.065-.246.15-.369.254-.123.104-.19.3-.203.586-.011.313-.024.71-.037 1.192 0 .47-.006 1.003-.017 1.603 0 .599-.005 1.25-.017 1.953v2.188c-.01.847-.11 1.57-.295 2.169s-.43 1.1-.738 1.504a3.695 3.695 0 0 1-.997.957 4.52 4.52 0 0 1-1.071.528 3.65 3.65 0 0 1-.979.234 6.111 6.111 0 0 1-.72.059 7.05 7.05 0 0 1-2.03-.293 4.495 4.495 0 0 1-1.718-.899c-.492-.417-.886-.957-1.181-1.621-.295-.665-.443-1.472-.443-2.423v-4.24c0-.625-.006-1.185-.017-1.68 0-.508-.006-.918-.017-1.23-.011-.287-.079-.482-.203-.586a2.089 2.089 0 0 0-.369-.255l.017-.097c.061.012.16.025.296.039.147.012.295.025.442.039.16 0 .314.006.462.018h.664a5.72 5.72 0 0 1 .462-.018c.16-.012.308-.025.443-.04a2.52 2.52 0 0 0 .314-.038l.017.097a1.81 1.81 0 0 0-.388.254c-.11.104-.172.3-.184.586-.012.313-.024.723-.037 1.231v5.92c0 1.42.314 2.468.941 3.145.628.678 1.557 1.016 2.788 1.016.357 0 .763-.045 1.218-.137a3.17 3.17 0 0 0 1.274-.625c.406-.313.745-.755 1.016-1.328.283-.573.424-1.335.424-2.286a174 174 0 0 0-.017-2.637c0-.743-.005-1.375-.017-1.896 0-.534-.005-.99-.017-1.367a72.65 72.65 0 0 0-.037-1.036c-.01-.286-.078-.482-.203-.586a2.1 2.1 0 0 0-.368-.254l.016-.097c.136.026.29.052.462.078.172.012.332.018.48.018.135 0 .289-.006.461-.018.185-.026.345-.052.48-.078l.012.097ZM41.833 4.12l-.117.04c-.455-1.013-1.103-1.82-1.947-2.42-.83-.6-1.874-.9-3.133-.9-.7 0-1.369.154-2.005.46a4.989 4.989 0 0 0-1.673 1.26c-.468.534-.844 1.18-1.129 1.94-.286.76-.428 1.6-.428 2.52 0 .92.142 1.76.428 2.52.285.76.661 1.413 1.129 1.96.48.533 1.037.947 1.673 1.24.636.293 1.304.44 2.005.44 1.246 0 2.258-.2 3.036-.6.792-.413 1.46-1.04 2.005-1.88l.117.04-.04 1.28a5.52 5.52 0 0 1-1.03.86c-.39.24-.811.447-1.266.62-.44.16-.901.28-1.381.36-.48.093-.96.14-1.44.14-1 0-1.954-.167-2.862-.5a7.58 7.58 0 0 1-2.394-1.4 6.797 6.797 0 0 1-1.635-2.2c-.402-.866-.603-1.826-.603-2.88 0-1.053.2-2.006.603-2.86a6.743 6.743 0 0 1 1.635-2.22 7.1 7.1 0 0 1 2.394-1.4 8.247 8.247 0 0 1 2.861-.499c.48 0 .96.04 1.44.12a6.8 6.8 0 0 1 1.382.38c.454.16.876.367 1.265.62.39.24.733.52 1.032.84l.078 2.12Zm20.285 8.608a4.367 4.367 0 0 0-.32-.036 6.68 6.68 0 0 1-.45-.017c-.163 0-.32-.005-.47-.016H59.75c-.15.01-.301.023-.452.036a3.768 3.768 0 0 0-.319.036l-.017-.072c.125-.06.25-.14.375-.236.126-.097.195-.278.207-.544.012-.29.018-.592.018-.906.011-.315.017-.671.017-1.07V3.505c0-.4-.006-.75-.017-1.052 0-.314-.006-.616-.018-.906-.011-.266-.08-.447-.206-.544a1.706 1.706 0 0 0-.376-.254l.017-.072c.075.024.182.042.32.054.15 0 .3.006.45.017.163.011.32.017.47.017h.658c.15-.011.307-.017.47-.017.163-.011.313-.023.45-.036.151-.011.258-.023.32-.036l.017.072c-.137.06-.269.145-.394.254-.113.097-.176.278-.188.543l-.038.907v8.52c.012.313.024.615.038.905.011.266.074.448.188.544.125.097.256.175.394.236l-.017.07Z"/>
</svg>
