<svg xmlns="http://www.w3.org/2000/svg" width="65" height="13" fill="none" viewBox="0 0 65 13">
  <path fill="#3F3F3F" fill-rule="evenodd" d="M58.635.257H65v1.018a1.818 1.818 0 0 0-.573-.095h-3.66v4.76h3.56c.255 0 .483-.029.673-.076v1.013a3.07 3.07 0 0 0-.659-.057h-3.573v4.92h3.55c.194 0 .426-.028.682-.09v1.094h-6.355c.047-.181.076-.376.076-.59V.862a1.77 1.77 0 0 0-.086-.604Zm-1.474 3.24-1.839-.014c-.09-1.037-.683-2.041-1.986-2.227-2.791-.252-3.578 2.827-3.507 5.078.071 2.17.417 5.505 3.298 5.505 1.209 0 2.37-1.247 2.333-2.299l1.7-.013c-.123 2.169-2.602 3.425-3.782 3.468-4.032.138-5.72-2.56-5.805-6.41C47.497 3.098 48.919 0 52.905 0c3.413.048 4.07 2.075 4.256 3.498Zm-28.682 7.827 1.218-1.022c.635 1.052 1.157 1.532 2.417 1.532 1.28 0 2.356-.78 2.356-2.16 0-.68-.276-1.237-.82-1.656-.247-.195-.872-.533-1.858-1.004-1.474-.71-2.91-1.632-2.91-3.488 0-2.34 1.98-3.373 4.07-3.45 1.238-.047 2.773.638 3.394 1.409l-1.237.956a2.592 2.592 0 0 0-2.274-1.37c-1.579 0-2.83 1.837-1.522 3.103.332.323 1.01.723 2.043 1.199 1.65.776 3.057 1.704 3.057 3.754 0 .709-.185 1.37-.55 1.974-.735 1.219-1.962 1.828-3.677 1.828-1.973 0-2.361-.452-3.707-1.605ZM11.123.257h6.36v1.018a1.815 1.815 0 0 0-.573-.095h-3.659v4.76h3.56c.256 0 .483-.029.673-.076v1.013a3.05 3.05 0 0 0-.655-.057h-3.578v4.92h3.55c.194 0 .427-.028.682-.09v1.094h-6.35c.042-.181.07-.376.07-.59V.862c0-.247-.028-.452-.08-.604ZM0 .257h2.313v.114c0 .105.033.243.09.42l3.26 9.854L9.01.747c.052-.167.08-.328.08-.49h1.124c-.114.2-.2.376-.251.533l-3.82 11.444a2.666 2.666 0 0 0-.1.51H4.146a3.178 3.178 0 0 0-.128-.51L.275.88a19.293 19.293 0 0 0-.27-.623H0Zm24.564 6.51c1.517-.3 2.678-1.466 2.678-3.131 0-2.185-1.82-3.379-3.858-3.379h-3.725c.052.19.08.39.08.6v11.286c0 .243-.028.447-.08.6h2.218a2.225 2.225 0 0 1-.08-.6V6.957l.71.076 3.716 5.71h2.232l-3.891-5.976Zm-.384-.952c-.403.286-.886.428-1.44.428h-.948V1.166h.848c.725 0 1.289.18 1.692.542.55.5.83 1.176.83 2.023 0 .913-.328 1.608-.982 2.084Zm23.024 6.41L43.062.67a1.511 1.511 0 0 1-.081-.414H41.19c0 .148-.024.305-.081.462l-4.014 11.505a2.261 2.261 0 0 1-.251.519H38a1.486 1.486 0 0 1 .071-.519l1.19-3.393h4.573l1.175 3.393c.062.186.09.357.09.519h2.399a2.534 2.534 0 0 1-.294-.519Zm-7.631-4.312 1.934-5.638 1.985 5.638h-3.919Z" clip-rule="evenodd"/>
</svg>
