<svg xmlns="http://www.w3.org/2000/svg" width="22" height="21" fill="none" viewBox="0 0 22 21">
  <g clip-path="url(#a)">
    <path fill="#fff" fill-rule="evenodd" d="M.428 0v21h21V0h-21ZM16.71 7.535c.006.128.009.257.009.386 0 3.942-3 8.486-8.487 8.486a8.44 8.44 0 0 1-4.572-1.34 5.984 5.984 0 0 0 4.416-1.235 2.986 2.986 0 0 1-2.787-2.071 2.976 2.976 0 0 0 1.348-.051 2.985 2.985 0 0 1-2.393-2.925v-.037a2.97 2.97 0 0 0 1.351.373 2.981 2.981 0 0 1-.923-3.983 8.468 8.468 0 0 0 6.148 3.117 2.983 2.983 0 0 1 5.082-2.72 5.97 5.97 0 0 0 1.895-.724 2.991 2.991 0 0 1-1.312 1.65 5.966 5.966 0 0 0 1.713-.47 6.057 6.057 0 0 1-1.488 1.544Z" clip-rule="evenodd"/>
  </g>
  <defs>
    <clipPath id="a">
      <path fill="#fff" d="M0 0h21v21H0z" transform="translate(.428)"/>
    </clipPath>
  </defs>
</svg>
