<svg xmlns="http://www.w3.org/2000/svg" width="22" height="21" fill="none" viewBox="0 0 22 21">
  <g clip-path="url(#a)">
    <path fill="#fff" d="M4.258 21h17.171V0h-21v21h3.829ZM14.784 3.281c0-.255.091-.476.274-.663a.9.9 0 0 1 .67-.28h2.379a.9.9 0 0 1 .67.28.92.92 0 0 1 .273.663v2.256a.91.91 0 0 1-.273.67.91.91 0 0 1-.67.273h-2.38a.91.91 0 0 1-.67-.273.91.91 0 0 1-.273-.67V3.28Zm-.854 5.091c.825.798 1.237 1.762 1.237 2.892s-.412 2.094-1.237 2.891c-.825.798-1.821 1.196-2.987 1.196-1.158 0-2.15-.398-2.974-1.196-.825-.797-1.237-1.76-1.237-2.891 0-1.13.412-2.094 1.237-2.892.825-.797 1.816-1.196 2.974-1.196 1.166 0 2.162.4 2.987 1.196Zm-7.855-5.09c0-.256.09-.477.273-.664a.9.9 0 0 1 .67-.28h.5c.265 0 .488.093.67.28a.919.919 0 0 1 .274.663v2.256a.91.91 0 0 1-.273.67.91.91 0 0 1-.67.273h-.501a.91.91 0 0 1-.67-.273.91.91 0 0 1-.273-.67V3.28Zm-3.308 0a.92.92 0 0 1 .273-.664.9.9 0 0 1 .67-.28h.501a.9.9 0 0 1 .67.28.919.919 0 0 1 .274.663v2.256a.91.91 0 0 1-.274.67.91.91 0 0 1-.67.273h-.5a.91.91 0 0 1-.67-.273.91.91 0 0 1-.274-.67V3.28Zm0 15V9.424h1.928a5.882 5.882 0 0 0-.274 1.791c0 1.75.638 3.243 1.914 4.478 1.276 1.235 2.812 1.852 4.608 1.852a6.564 6.564 0 0 0 3.28-.848 6.375 6.375 0 0 0 2.38-2.303 6.06 6.06 0 0 0 .875-3.179 5.86 5.86 0 0 0-.274-1.791h1.846v8.86a.795.795 0 0 1-.246.594.811.811 0 0 1-.588.24H3.6a.805.805 0 0 1-.595-.24.806.806 0 0 1-.239-.594Z"/>
  </g>
  <defs>
    <clipPath id="a">
      <path fill="#fff" d="M0 0h21v21H0z" transform="translate(.428)"/>
    </clipPath>
  </defs>
</svg>
