<svg xmlns="http://www.w3.org/2000/svg" width="67" height="36" fill="none" viewBox="0 0 67 36">
  <path fill="#fff" fill-rule="evenodd" d="M57.773 13.454H2.113v20.432h55.66V13.454ZM0 11.341V36h59.886V11.34H0Z" clip-rule="evenodd"/>
  <path fill="#fff" d="M14.165 29.814c-1.183 0-2.024-.329-2.522-.986-.489-.667-.733-1.607-.733-2.818v-4.073c0-1.25.244-2.198.733-2.846.488-.648 1.33-.972 2.522-.972 1.118 0 1.912.282 2.382.845.47.564.704 1.376.704 2.438v.958h-2v-.986c0-.404-.02-.719-.057-.944a.918.918 0 0 0-.296-.564c-.15-.15-.39-.226-.719-.226-.338 0-.592.08-.76.24-.17.15-.283.357-.339.62a5.71 5.71 0 0 0-.07 1v4.946c0 .649.084 1.118.253 1.41.17.281.475.422.916.422.32 0 .554-.075.705-.225a.992.992 0 0 0 .296-.592 5.71 5.71 0 0 0 .07-1v-1.03h2.001v.917c0 1.099-.23 1.954-.69 2.564-.46.602-1.26.902-2.396.902Zm5.947-11.569h2.748c1.202 0 2.1.23 2.691.69.592.452.888 1.232.888 2.34 0 .723-.108 1.315-.324 1.776-.207.45-.568.78-1.085.986l1.592 5.622h-2.085l-1.367-5.228h-.987v5.228h-2.07V18.246Zm2.734 4.89c.591 0 1.01-.136 1.254-.409.253-.272.38-.718.38-1.338 0-.602-.113-1.038-.338-1.31-.216-.273-.61-.41-1.184-.41h-.775v3.467h.663Zm6.63-4.89h2.057V29.66h-2.057V18.246Zm8.108 11.569c-1.033 0-1.808-.291-2.325-.873-.507-.583-.785-1.452-.831-2.607l1.79-.353c.027.724.14 1.278.337 1.663.207.376.526.564.959.564.319 0 .554-.094.704-.282.16-.197.24-.46.24-.79 0-.45-.104-.83-.31-1.14-.198-.32-.512-.668-.945-1.043l-1.437-1.254c-.441-.376-.775-.78-1-1.212-.216-.432-.324-.949-.324-1.55 0-.893.258-1.583.775-2.072.526-.497 1.249-.746 2.17-.746.986 0 1.69.282 2.113.845.432.554.681 1.306.747 2.255l-1.79.31c-.028-.62-.117-1.085-.267-1.395-.141-.32-.423-.48-.846-.48-.3 0-.535.104-.704.31-.17.198-.254.452-.254.762 0 .366.07.676.212.93.15.244.39.507.718.789l1.423 1.254c.536.46.954.953 1.255 1.48.3.525.45 1.136.45 1.831 0 .545-.122 1.029-.366 1.451a2.56 2.56 0 0 1-1 1c-.433.236-.93.353-1.494.353Zm5.497-11.569h3.354c1.944 0 2.917 1.08 2.917 3.241 0 2.067-1.02 3.1-3.058 3.1h-1.141v5.073H43.08V18.246Zm2.875 4.876c.563 0 .944-.117 1.141-.352.197-.245.296-.677.296-1.297 0-.45-.033-.794-.099-1.028a.875.875 0 0 0-.408-.55c-.197-.122-.507-.183-.93-.183h-.803v3.41h.803Z"/>
  <path fill="#fff" fill-rule="evenodd" d="M6.341 5h59.887v24.66h-2.114v2.113H62v-4.227h2.114V7.114H8.455v2.113H4.58V7.114h1.761V5Z" clip-rule="evenodd"/>
</svg>